<svg data-v-fde0c5aa="" xmlns="http://www.w3.org/2000/svg" viewBox="0 0 300 300" class="iconLeftSlogan"><!----><defs data-v-fde0c5aa=""><!----></defs><rect data-v-fde0c5aa="" fill="transparent" x="0" y="0" width="300px" height="300px" class="logo-background-square"></rect><defs data-v-fde0c5aa=""><!----></defs><g data-v-fde0c5aa="" id="e665f19b-ec73-482a-a0f8-d4972a84f30e" fill="#000000" transform="matrix(2.0415231006222627,0,0,2.0415231006222627,108.53939301685634,122.70829927932098)"><path d="M0.85 4.14L0.85 4.14L0.85 4.14Q2.42 3.61 4.10 3.61L4.10 3.61L4.10 3.61Q5.78 3.61 6.89 4.33L6.89 4.33L6.89 4.33Q7.99 5.04 7.99 6.51L7.99 6.51L7.99 6.51Q7.99 7.98 6.96 8.98L6.96 8.98L6.96 8.98Q5.92 9.98 4.47 9.98L4.47 9.98L4.47 9.98Q3.40 9.98 3.40 9.17L3.40 9.17L3.40 9.17Q3.40 8.92 3.50 8.64L3.50 8.64L3.50 8.64Q3.88 8.74 4.19 8.74L4.19 8.74L4.19 8.74Q5.15 8.74 5.65 8.20L5.65 8.20L5.65 8.20Q6.15 7.67 6.15 6.73L6.15 6.73L6.15 6.73Q6.15 5.78 5.61 5.32L5.61 5.32L5.61 5.32Q5.08 4.86 4.13 4.86L4.13 4.86L4.13 4.86Q3.64 4.86 2.94 5.03L2.94 5.03L2.94 5.03Q2.83 6.75 2.83 8.08L2.83 8.08L2.83 8.08Q2.83 11.80 3.12 13.47L3.12 13.47L3.12 13.47Q2.67 13.64 2.17 13.64L2.17 13.64L2.17 13.64Q1.67 13.64 1.29 13.31L1.29 13.31L1.29 13.31Q0.92 12.99 0.92 12.46L0.92 12.46L0.92 12.46Q0.92 11.93 1.06 10.61L1.06 10.61L1.06 10.61Q1.20 9.28 1.20 8.48L1.20 8.48L1.20 8.48Q1.20 6.05 0.85 4.14ZM11.06 13.47L11.06 13.47Q10.63 13.64 10.14 13.64L10.14 13.64L10.14 13.64Q9.65 13.64 9.35 13.41L9.35 13.41L9.35 13.41Q9.04 13.17 9.04 12.76L9.04 12.76L9.04 12.76Q9.04 12.35 9.17 11.26L9.17 11.26L9.17 11.26Q9.30 10.16 9.30 9.14L9.30 9.14L9.30 9.14Q9.30 8.11 8.97 6.72L8.97 6.72L8.97 6.72Q9.42 6.55 9.86 6.55L9.86 6.55L9.86 6.55Q10.29 6.55 10.61 6.85L10.61 6.85L10.61 6.85Q10.92 7.14 10.92 7.63L10.92 7.63L10.92 7.63Q10.92 7.88 10.84 8.38L10.84 8.38L10.84 8.38Q10.75 8.88 10.74 9.13L10.74 9.13L10.74 9.13Q11.28 7.88 12.03 7.18L12.03 7.18L12.03 7.18Q12.78 6.47 13.52 6.47L13.52 6.47L13.52 6.47Q14.04 6.47 14.35 6.83L14.35 6.83L14.35 6.83Q14.66 7.20 14.66 7.75L14.66 7.75L14.66 7.75Q14.66 8.30 14.38 8.64L14.38 8.64L14.38 8.64Q14.10 8.99 13.69 8.99L13.69 8.99L13.69 8.99Q13.27 8.99 13.02 8.90L13.02 8.90L13.02 8.90Q13.06 8.74 13.06 8.60L13.06 8.60L13.06 8.60Q13.06 8.02 12.66 8.02L12.66 8.02L12.66 8.02Q12.04 8.02 11.50 9.26L11.50 9.26L11.50 9.26Q10.96 10.50 10.78 11.58L10.78 11.58L10.78 11.58Q10.85 12.63 11.06 13.47L11.06 13.47ZM17.95 13.80L17.95 13.80L17.95 13.80Q16.41 13.80 15.68 12.90L15.68 12.90L15.68 12.90Q14.95 12.00 14.95 10.38L14.95 10.38L14.95 10.38Q14.95 8.76 15.92 7.57L15.92 7.57L15.92 7.57Q16.88 6.38 18.40 6.38L18.40 6.38L18.40 6.38Q21.50 6.38 21.50 9.88L21.50 9.88L21.50 9.88Q21.50 11.52 20.50 12.66L20.50 12.66L20.50 12.66Q19.49 13.80 17.95 13.80ZM16.94 7.92L16.94 7.92L16.94 7.92Q16.69 8.74 16.69 9.55L16.69 9.55L16.69 9.55Q16.69 10.36 16.74 10.81L16.74 10.81L16.74 10.81Q16.80 11.26 16.95 11.70L16.95 11.70L16.95 11.70Q17.28 12.61 18.22 12.61L18.22 12.61L18.22 12.61Q19.17 12.61 19.47 12.11L19.47 12.11L19.47 12.11Q19.77 11.61 19.77 10.56L19.77 10.56L19.77 10.56Q19.77 7.57 18.35 7.57L18.35 7.57L18.35 7.57Q17.54 7.57 16.94 7.92ZM24.64 9.16L24.64 9.16L24.64 9.16Q24.64 11.86 24.93 13.47L24.93 13.47L24.93 13.47Q24.49 13.64 23.98 13.64L23.98 13.64L23.98 13.64Q23.48 13.64 23.11 13.31L23.11 13.31L23.11 13.31Q22.74 12.99 22.74 12.43L22.74 12.43L22.74 12.43Q22.74 11.86 22.88 10.28L22.88 10.28L22.88 10.28Q23.02 8.69 23.02 7.83L23.02 7.83L23.02 7.83Q23.02 5.68 22.72 3.70L22.72 3.70L22.72 3.70Q23.76 3.78 25.51 3.78L25.51 3.78L25.51 3.78Q27.26 3.78 28.85 3.53L28.85 3.53L28.85 3.53Q29.02 3.84 29.02 4.26L29.02 4.26L29.02 4.26Q29.02 4.69 28.69 5.02L28.69 5.02L28.69 5.02Q28.36 5.35 27.88 5.35L27.88 5.35L27.88 5.35Q27.40 5.35 26.34 5.21L26.34 5.21L26.34 5.21Q25.28 5.07 24.78 5.07L24.78 5.07L24.78 5.07Q24.67 6.59 24.64 7.87L24.64 7.87L24.64 7.87Q25.45 7.95 26.44 7.95L26.44 7.95L26.44 7.95Q27.43 7.95 28.15 7.66L28.15 7.66L28.15 7.66Q28.32 7.97 28.32 8.39L28.32 8.39L28.32 8.39Q28.32 8.82 27.99 9.16L27.99 9.16L27.99 9.16Q27.66 9.51 27.22 9.51L27.22 9.51L27.22 9.51Q26.77 9.51 25.93 9.33L25.93 9.33L25.93 9.33Q25.09 9.16 24.64 9.16ZM32.16 13.80L32.16 13.80L32.16 13.80Q30.62 13.80 29.89 12.90L29.89 12.90L29.89 12.90Q29.16 12.00 29.16 10.38L29.16 10.38L29.16 10.38Q29.16 8.76 30.13 7.57L30.13 7.57L30.13 7.57Q31.09 6.38 32.61 6.38L32.61 6.38L32.61 6.38Q35.71 6.38 35.71 9.88L35.71 9.88L35.71 9.88Q35.71 11.52 34.71 12.66L34.71 12.66L34.71 12.66Q33.70 13.80 32.16 13.80ZM31.15 7.92L31.15 7.92L31.15 7.92Q30.90 8.74 30.90 9.55L30.90 9.55L30.90 9.55Q30.90 10.36 30.95 10.81L30.95 10.81L30.95 10.81Q31.01 11.26 31.16 11.70L31.16 11.70L31.16 11.70Q31.49 12.61 32.43 12.61L32.43 12.61L32.43 12.61Q33.38 12.61 33.68 12.11L33.68 12.11L33.68 12.11Q33.98 11.61 33.98 10.56L33.98 10.56L33.98 10.56Q33.98 7.57 32.56 7.57L32.56 7.57L32.56 7.57Q31.75 7.57 31.15 7.92ZM39.37 13.80L39.37 13.80L39.37 13.80Q37.83 13.80 37.10 12.90L37.10 12.90L37.10 12.90Q36.37 12.00 36.37 10.38L36.37 10.38L36.37 10.38Q36.37 8.76 37.34 7.57L37.34 7.57L37.34 7.57Q38.30 6.38 39.82 6.38L39.82 6.38L39.82 6.38Q42.92 6.38 42.92 9.88L42.92 9.88L42.92 9.88Q42.92 11.52 41.92 12.66L41.92 12.66L41.92 12.66Q40.91 13.80 39.37 13.80ZM38.36 7.92L38.36 7.92L38.36 7.92Q38.11 8.74 38.11 9.55L38.11 9.55L38.11 9.55Q38.11 10.36 38.16 10.81L38.16 10.81L38.16 10.81Q38.22 11.26 38.37 11.70L38.37 11.70L38.37 11.70Q38.70 12.61 39.64 12.61L39.64 12.61L39.64 12.61Q40.59 12.61 40.89 12.11L40.89 12.11L40.89 12.11Q41.19 11.61 41.19 10.56L41.19 10.56L41.19 10.56Q41.19 7.57 39.77 7.57L39.77 7.57L39.77 7.57Q38.96 7.57 38.36 7.92ZM48.47 3.30L48.47 3.30L48.47 3.30Q48.92 3.14 49.39 3.14L49.39 3.14L49.39 3.14Q49.87 3.14 50.18 3.45L50.18 3.45L50.18 3.45Q50.48 3.77 50.48 4.24L50.48 4.24L50.48 4.24Q50.48 4.70 50.34 6.45L50.34 6.45L50.34 6.45Q50.20 8.19 50.20 9.88L50.20 9.88L50.20 9.88Q50.20 11.56 50.54 13.47L50.54 13.47L50.54 13.47Q50.04 13.64 49.49 13.64L49.49 13.64L49.49 13.64Q48.57 13.64 48.57 12.33L48.57 12.33L48.57 12.33Q48.57 11.90 48.75 10.78L48.75 10.78L48.75 10.78Q48.16 12.03 47.70 12.63L47.70 12.63L47.70 12.63Q47.25 13.23 46.82 13.48L46.82 13.48L46.82 13.48Q46.40 13.72 45.92 13.72L45.92 13.72L45.92 13.72Q44.86 13.72 44.29 12.94L44.29 12.94L44.29 12.94Q43.72 12.15 43.72 11.00L43.72 11.00L43.72 11.00Q43.72 9.86 44.13 8.84L44.13 8.84L44.13 8.84Q44.55 7.83 45.38 7.15L45.38 7.15L45.38 7.15Q46.21 6.47 47.15 6.47L47.15 6.47L47.15 6.47Q48.09 6.47 48.78 6.72L48.78 6.72L48.78 6.72Q48.75 4.91 48.47 3.30ZM48.78 7.91L48.78 7.91L48.78 7.91Q48.09 7.66 47.29 7.66L47.29 7.66L47.29 7.66Q46.49 7.66 45.92 8.12L45.92 8.12L45.92 8.12Q45.44 9.25 45.44 10.65L45.44 10.65L45.44 10.65Q45.44 11.30 45.63 11.89L45.63 11.89L45.63 11.89Q45.81 12.47 46.23 12.47L46.23 12.47L46.23 12.47Q46.87 12.47 47.69 11.03L47.69 11.03L47.69 11.03Q48.51 9.59 48.78 7.91ZM53.87 9.16L53.87 9.16L53.87 9.16Q53.87 11.86 54.17 13.47L54.17 13.47L54.17 13.47Q53.72 13.64 53.21 13.64L53.21 13.64L53.21 13.64Q52.71 13.64 52.34 13.31L52.34 13.31L52.34 13.31Q51.97 12.99 51.97 12.43L51.97 12.43L51.97 12.43Q51.97 11.86 52.11 10.28L52.11 10.28L52.11 10.28Q52.25 8.69 52.25 7.83L52.25 7.83L52.25 7.83Q52.25 5.68 51.95 3.70L51.95 3.70L51.95 3.70Q52.99 3.78 54.74 3.78L54.74 3.78L54.74 3.78Q56.49 3.78 58.09 3.53L58.09 3.53L58.09 3.53Q58.25 3.84 58.25 4.26L58.25 4.26L58.25 4.26Q58.25 4.69 57.92 5.02L57.92 5.02L57.92 5.02Q57.60 5.35 57.11 5.35L57.11 5.35L57.11 5.35Q56.63 5.35 55.57 5.21L55.57 5.21L55.57 5.21Q54.52 5.07 54.01 5.07L54.01 5.07L54.01 5.07Q53.90 6.59 53.87 7.87L53.87 7.87L53.87 7.87Q54.68 7.95 55.67 7.95L55.67 7.95L55.67 7.95Q56.66 7.95 57.39 7.66L57.39 7.66L57.39 7.66Q57.55 7.97 57.55 8.39L57.55 8.39L57.55 8.39Q57.55 8.82 57.22 9.16L57.22 9.16L57.22 9.16Q56.90 9.51 56.45 9.51L56.45 9.51L56.45 9.51Q56 9.51 55.16 9.33L55.16 9.33L55.16 9.33Q54.32 9.16 53.87 9.16ZM64.22 11.23L64.22 11.23L64.22 11.23Q64.40 10.65 64.48 10.09L64.48 10.09L64.48 10.09Q64.55 9.53 64.55 8.89L64.55 8.89L64.55 8.89Q64.55 8.25 64.48 7.73L64.48 7.73L64.48 7.73Q64.41 7.21 64.23 6.72L64.23 6.72L64.23 6.72Q63.84 5.68 62.66 5.68L62.66 5.68L62.66 5.68Q61.92 5.68 61.40 6.26L61.40 6.26L61.40 6.26Q60.94 7.36 60.94 9.32L60.94 9.32L60.94 9.32Q60.94 11.12 61.46 11.84L61.46 11.84L61.46 11.84Q61.94 12.49 62.83 12.49L62.83 12.49L62.83 12.49Q63.34 12.49 63.69 12.15L63.69 12.15L63.69 12.15Q64.05 11.80 64.22 11.23ZM66.40 8.79L66.40 8.79L66.40 8.79Q66.40 10.89 65.30 12.35L65.30 12.35L65.30 12.35Q64.19 13.80 62.27 13.80L62.27 13.80L62.27 13.80Q61.14 13.80 60.40 13.20L60.40 13.20L60.40 13.20Q59.67 12.59 59.38 11.66L59.38 11.66L59.38 11.66Q59.09 10.72 59.09 9.46L59.09 9.46L59.09 9.46Q59.09 7.35 60.21 5.86L60.21 5.86L60.21 5.86Q61.32 4.37 63.22 4.37L63.22 4.37L63.22 4.37Q64.36 4.37 65.09 5.00L65.09 5.00L65.09 5.00Q65.83 5.63 66.11 6.58L66.11 6.58L66.11 6.58Q66.40 7.53 66.40 8.79ZM72.37 7.91L72.37 7.91L72.37 7.91Q72.37 6.93 72.00 6.31L72.00 6.31L72.00 6.31Q71.64 5.68 70.83 5.68L70.83 5.68L70.83 5.68Q70.31 5.68 69.83 6.01L69.83 6.01L69.83 6.01Q69.52 6.52 69.52 7.15L69.52 7.15L69.52 7.15Q69.52 7.78 69.83 8.20L69.83 8.20L69.83 8.20Q70.14 8.62 70.69 8.62L70.69 8.62L70.69 8.62Q71.61 8.62 72.37 7.91ZM72.35 9.10L72.35 9.10L72.35 9.10Q71.40 9.86 70.21 9.86L70.21 9.86L70.21 9.86Q69.02 9.86 68.34 9.25L68.34 9.25L68.34 9.25Q67.66 8.65 67.66 7.59L67.66 7.59L67.66 7.59Q67.66 6.24 68.68 5.31L68.68 5.31L68.68 5.31Q69.69 4.37 71.14 4.37L71.14 4.37L71.14 4.37Q72.59 4.37 73.39 5.40L73.39 5.40L73.39 5.40Q74.19 6.43 74.19 7.97L74.19 7.97L74.19 7.97Q74.19 9.52 73.73 10.79L73.73 10.79L73.73 10.79Q73.28 12.07 72.29 12.94L72.29 12.94L72.29 12.94Q71.30 13.80 69.99 13.80L69.99 13.80L69.99 13.80Q69.10 13.80 68.47 13.42L68.47 13.42L68.47 13.42Q67.83 13.03 67.83 12.29L67.83 12.29L67.83 12.29Q67.83 11.76 68.22 11.44L68.22 11.44L68.22 11.44Q68.60 11.12 69.04 11.12L69.04 11.12L69.04 11.12Q69.48 11.12 69.71 11.19L69.71 11.19L69.71 11.19Q69.61 11.47 69.61 11.73L69.61 11.73L69.61 11.73Q69.61 12.49 70.43 12.49L70.43 12.49L70.43 12.49Q70.97 12.49 71.36 12.17L71.36 12.17L71.36 12.17Q71.75 11.86 71.96 11.34L71.96 11.34L71.96 11.34Q72.35 10.32 72.35 9.10Z"></path></g><defs data-v-fde0c5aa=""><linearGradient data-v-fde0c5aa="" gradientTransform="rotate(25)" id="409789d0-bbcb-430c-b503-5fe173175ce7" x1="0%" y1="0%" x2="100%" y2="0%"><stop data-v-fde0c5aa="" offset="0%" stop-color="#01648B" stop-opacity="1"></stop><stop data-v-fde0c5aa="" offset="100%" stop-color="#5BD0A4" stop-opacity="1"></stop></linearGradient></defs><g data-v-fde0c5aa="" id="16b94ec8-010f-4fe1-98d3-cb1ce3be6cda" stroke="none" fill="url(#409789d0-bbcb-430c-b503-5fe173175ce7)" transform="matrix(0.5734191150264509,0,0,0.5734191150264509,40,121.32910330902637)"><path d="M0 66.828v4.428C1.098 78.679 25.121 100 30.618 100h38.647c5.496 0 29.52-21.321 30.617-28.745v-4.428H0zM71.614 43.042c.178-.138 4.363-3.416 4.585-7.457a1.25 1.25 0 0 0-2.496-.138c-.159 2.894-3.585 5.59-3.619 5.617.068-.054.142-.099.221-.137l-.22.136a1.25 1.25 0 0 0 1.529 1.979zM73.628 59.742c-1.531-.398-4.713-.451-5.791 2.199a1.25 1.25 0 0 0 2.317.941c.522-1.285 2.822-.727 2.846-.721a1.25 1.25 0 1 0 .628-2.419zM97.637 54.542c-4.474 2.049-9.854 7.622-7.916 8.641 1.937 1.019 4.706-.634 7.666-2.979 2.96-2.346 3.582-7.19.25-5.662zM61.918 38.932c-1.984.083-4.756.5-5.922 3.162l-.179.4c-.428.95-.87 1.933-.446 2.971.418 1.026 1.509 1.563 2.412 1.917 2.985 1.168 6.558.515 8.132-1.489.867-1.103.915-2.818.121-4.369-.854-1.67-2.432-2.662-4.118-2.592zm2.032 5.415c-.785 1-3.138 1.535-5.257.706-.858-.336-1.015-.549-1.021-.558.013.018.026.06.026.082-.004-.166.229-.681.397-1.057l.189-.424c.333-.76 1.038-1.554 3.735-1.666 1.052-.044 1.635.932 1.789 1.232.364.706.357 1.411.142 1.685zM45.879 40.212c-2.1-.233-3.716 1.188-5.191 2.664-.718.718-1.805 1.804-1.741 3.219.043.942.568 1.821 1.605 2.685l.433.365c1.905 1.614 3.228 2.514 6.265.742 2.726-1.59 2.892-2.827 2.829-4.401a12.458 12.458 0 0 1-.014-.52c0-2.211-2.61-4.578-4.186-4.754zm1.686 4.754c0 .227.008.436.016.62.038.935.048 1.186-1.59 2.142-1.665.971-1.828.833-3.389-.49l-.448-.378c-.513-.427-.702-.74-.708-.877-.014-.313.731-1.058 1.011-1.338 1.275-1.276 2.247-2.047 3.148-1.947a.112.112 0 0 1-.02-.003c.544.119 1.98 1.457 1.98 2.271zM56.561 53.749c-2.514-1.143-8.519-3.468-9.985-.387-.312.652-.946 1.363-1.505 1.991-.972 1.09-1.891 2.119-1.584 3.334.178.704.714 1.224 1.596 1.544 2.937 1.067 6.611 2.107 8.979.66 1.943-1.187 2.591-3.593 2.939-4.885.06-.222.134-.497.168-.579.264-.623.008-1.398-.608-1.678zm-3.802 5.009c-1.567.957-5.169-.279-6.616-.802.218-.291.543-.66.793-.939.667-.748 1.421-1.596 1.887-2.563.468-.384 2.977.054 5.699 1.143-.284 1.033-.751 2.543-1.763 3.161zm40.517-12.027c-.113-2.714-.481-3.339-1.594-4.566l-.152-.169c-.955-1.061-2.239-1.506-3.617-1.254-2.114.387-3.903 2.264-4.513 3.833-.162.416-.369.821-.569 1.212-.708 1.388-1.59 3.115-.028 5.157 2.014 2.633 4.144 2.804 7.122.571.692-.52 1.203-.82 1.614-1.062 1.553-.915 1.829-1.507 1.737-3.722zM53.9 29.78c-1.739-.263-5.884-.635-6.811 1.589-.745 1.788-.512 5.102-.483 5.473a1.25 1.25 0 0 0 1.068 1.14c.56.081 5.534.75 7.9-.432 1.425-.713 2.113-2.375 1.756-4.234-.38-1.975-1.791-3.4-3.43-3.536zM12.602 38.844l.034-.005c-.534-3.589-.841-5.708-1.377-8.776C8.242 12.813 5.494-.235 3.57.003c-.01 0-.018 0-.023.003l-.015.001-.015.003-.023.004C1.574.28 3.063 15.05 5.883 32c.511 3.074.816 4.243 1.438 7.875 0 0-5.53 4.177-4.374 9.492.861 3.958 5.42 14.332 5.897 14.928-1.103-6.002-1.398-13.729.102-13.729 1-.25 3.438 8 4.875 13.063 0 0-.313-13.813.875-13.875 1.517-.08 2.989 7.23 3.477 13.313.307-.7 2.024-11.899 1.832-15.946-.26-5.433-7.403-8.277-7.403-8.277z"></path><path d="M83.373 56.922c-.315-.737-1.683-2.813-6.615-1.704.046-1.517-.463-2.974-1.506-4.083-1.335-1.42-3.201-1.956-4.87-1.399-1.011.337-2.653 1.342-3.415 4.284-1.672-.634-3.307-.628-4.577.064-1.169.638-1.877 1.803-1.895 3.115-.025 1.972 1.443 3.963 4.03 5.462a1.248 1.248 0 0 0 1.708-.454 1.248 1.248 0 0 0-.454-1.708c-2.068-1.199-2.794-2.474-2.784-3.267.007-.525.325-.808.592-.953.672-.366 1.982-.387 3.646.654.364.229.82.253 1.207.065.388-.187.651-.56.698-.987.236-2.129.978-3.553 2.034-3.904.723-.241 1.608.049 2.258.739.887.944 1.092 2.311.549 3.656a1.248 1.248 0 0 0 1.559 1.652c3.688-1.245 5.347-.692 5.537-.249.213.496-.568 2.099-3.336 3.555a1.25 1.25 0 1 0 1.164 2.212c3.594-1.889 5.39-4.603 4.47-6.75zm-46.892-.776c1.012-1.692 1.121-3.712.675-5.244-.505-1.736-1.662-2.902-3.094-3.118-.93-.14-2.246.08-3.703 1.567-.794-1.249-1.797-2.044-2.898-2.234-1.053-.182-2.059.205-2.759 1.062-1.244 1.521-1.286 4.226-.113 7.235a1.25 1.25 0 0 0 2.329-.908c-1.06-2.719-.675-4.262-.28-4.745.156-.191.283-.199.397-.18.394.068 1.234.674 1.892 2.514a1.252 1.252 0 0 0 2.221.266c1.1-1.668 2.034-2.181 2.542-2.104.429.064.848.592 1.066 1.344.363 1.246.153 3.005-1.133 4.123a1.252 1.252 0 0 0 .421 2.128c2.981 1.008 3.832 2.374 3.676 3.047-.163.704-1.434 1.311-3.469 1.048a1.25 1.25 0 1 0-.32 2.478c3.716.48 5.804-1.142 6.226-2.963.374-1.628-.459-3.767-3.676-5.316z"></path><path d="M32.489 58.288c-.138-.196-1.4-1.92-3.115-2.129-.814-.1-1.591.147-2.246.715a1.25 1.25 0 0 0 1.636 1.891c.163-.141.249-.131.306-.124.424.05 1.074.667 1.38 1.093l-.003-.004a1.251 1.251 0 0 0 2.042-1.442z"></path></g><defs data-v-fde0c5aa=""><!----></defs><g data-v-fde0c5aa="" id="292a6c89-f476-416f-ac31-5679b24de647" fill="#000000" transform="matrix(1.19027992057562,0,0,1.19027992057562,109.94140932187887,156.95339428941824)"><path d="M0.28 3.68L0.28 3.68L0.28 3.68Q0.28 3.64 0.30 3.60L0.30 3.60L0.30 3.60Q0.32 3.56 0.41 3.50L0.41 3.50L0.41 3.50Q0.50 3.44 0.64 3.44L0.64 3.44L1.02 3.44L1.02 3.44Q1.36 3.44 2.11 3.49L2.11 3.49L2.11 3.49Q2.86 3.53 4.06 3.53L4.06 3.53L4.06 3.53Q5.05 3.53 5.82 3.49L5.82 3.49L5.82 3.49Q6.59 3.46 7.24 3.46L7.24 3.46L7.24 3.46Q7.48 3.46 7.48 3.79L7.48 3.79L7.48 3.79Q7.48 3.92 7.45 4.11L7.45 4.11L7.45 4.11Q7.42 4.30 7.36 4.61L7.36 4.61L7.36 4.61Q7.31 4.93 7.28 5.22L7.28 5.22L7.28 5.22Q7.25 5.50 7.07 5.50L7.07 5.50L7.07 5.50Q6.87 5.50 6.87 5.22L6.87 5.22L6.87 5.22Q6.87 4.30 6.23 4.26L6.23 4.26L6.23 4.26Q4.12 4.09 3.71 4.09L3.71 4.09L3.71 4.09Q3.08 4.09 2.93 4.24L2.93 4.24L2.93 4.24Q2.79 4.40 2.77 4.87L2.77 4.87L2.77 4.87Q2.77 4.94 2.77 4.98L2.77 4.98L2.77 4.98Q2.73 5.74 2.73 7.32L2.73 7.32L2.73 7.32Q2.73 8.01 2.98 8.02L2.98 8.02L2.98 8.02Q3.05 8.02 3.17 8.03L3.17 8.03L3.17 8.03Q3.29 8.04 3.33 8.04L3.33 8.04L3.33 8.04Q3.43 8.04 3.63 8.03L3.63 8.03L3.63 8.03Q3.82 8.02 3.93 8.02L3.93 8.02L4.37 8.02L4.37 8.02Q5.21 8.02 5.48 7.97L5.48 7.97L5.48 7.97Q5.75 7.92 5.98 7.77L5.98 7.77L5.98 7.77Q6.10 7.69 6.17 7.57L6.17 7.57L6.17 7.57Q6.24 7.46 6.27 7.31L6.27 7.31L6.27 7.31Q6.30 7.15 6.34 7.08L6.34 7.08L6.34 7.08Q6.38 7.01 6.51 7.01L6.51 7.01L6.51 7.01Q6.64 7.01 6.66 7.06L6.66 7.06L6.66 7.06Q6.69 7.10 6.69 7.24L6.69 7.24L6.69 7.24Q6.69 7.34 6.63 7.73L6.63 7.73L6.63 7.73Q6.57 8.12 6.57 8.40L6.57 8.40L6.57 8.40Q6.57 8.67 6.62 9.05L6.62 9.05L6.62 9.05Q6.66 9.44 6.66 9.55L6.66 9.55L6.66 9.55Q6.66 9.77 6.62 9.83L6.62 9.83L6.62 9.83Q6.57 9.90 6.47 9.90L6.47 9.90L6.47 9.90Q6.23 9.90 6.17 9.55L6.17 9.55L6.17 9.55Q6.17 9.52 6.16 9.42L6.16 9.42L6.16 9.42Q6.15 9.32 6.14 9.28L6.14 9.28L6.14 9.28Q6.13 9.24 6.10 9.16L6.10 9.16L6.10 9.16Q6.08 9.09 6.05 9.04L6.05 9.04L6.05 9.04Q6.02 9.00 5.98 8.95L5.98 8.95L5.98 8.95Q5.94 8.90 5.87 8.88L5.87 8.88L5.87 8.88Q5.67 8.79 5.17 8.74L5.17 8.74L5.17 8.74Q4.66 8.68 4.51 8.68L4.51 8.68L3.29 8.68L3.29 8.68Q2.72 8.68 2.72 8.95L2.72 8.95L2.72 8.95Q2.72 9.35 2.70 9.96L2.70 9.96L2.70 9.96Q2.69 10.57 2.69 10.96L2.69 10.96L2.69 10.96Q2.69 11.06 2.68 11.25L2.68 11.25L2.68 11.25Q2.67 11.44 2.67 11.52L2.67 11.52L2.67 11.52Q2.67 11.80 2.73 12.08L2.73 12.08L2.73 12.08Q2.79 12.36 3.06 12.67L3.06 12.67L3.06 12.67Q3.33 12.98 3.79 12.98L3.79 12.98L3.79 12.98Q4.21 12.98 4.21 13.23L4.21 13.23L4.21 13.23Q4.21 13.27 4.19 13.33L4.19 13.33L4.19 13.33Q4.16 13.38 4.05 13.44L4.05 13.44L4.05 13.44Q3.95 13.50 3.78 13.50L3.78 13.50L3.78 13.50Q3.56 13.50 3.07 13.44L3.07 13.44L3.07 13.44Q2.59 13.38 2.42 13.38L2.42 13.38L2.42 13.38Q2.03 13.38 1.55 13.43L1.55 13.43L1.55 13.43Q1.06 13.47 0.73 13.47L0.73 13.47L0.73 13.47Q0.45 13.47 0.45 13.31L0.45 13.31L0.45 13.31Q0.45 13.13 0.51 13.09L0.51 13.09L0.51 13.09Q0.57 13.05 1.05 12.88L1.05 12.88L1.05 12.88Q1.41 12.75 1.50 12.13L1.50 12.13L1.50 12.13Q1.58 11.51 1.60 9.60L1.60 9.60L1.60 9.60Q1.60 8.86 1.60 8.44L1.60 8.44L1.60 8.44Q1.60 8.06 1.62 7.26L1.62 7.26L1.62 7.26Q1.64 6.45 1.64 6.01L1.64 6.01L1.64 5.19L1.64 5.19Q1.64 4.27 0.98 3.96L0.98 3.96L0.98 3.96Q0.88 3.92 0.74 3.90L0.74 3.90L0.74 3.90Q0.60 3.88 0.51 3.88L0.51 3.88L0.51 3.88Q0.42 3.88 0.35 3.83L0.35 3.83L0.35 3.83Q0.28 3.78 0.28 3.68ZM15.37 8.69L15.37 8.69L15.37 8.69Q15.37 6.34 16.79 4.84L16.79 4.84L16.79 4.84Q18.20 3.33 20.79 3.33L20.79 3.33L20.79 3.33Q21.99 3.33 22.96 3.68L22.96 3.68L22.96 3.68Q23.93 4.03 24.49 4.54L24.49 4.54L24.49 4.54Q25.05 5.05 25.42 5.71L25.42 5.71L25.42 5.71Q25.80 6.37 25.94 6.92L25.94 6.92L25.94 6.92Q26.08 7.48 26.08 7.95L26.08 7.95L26.08 7.95Q26.08 9.86 25.34 11.16L25.34 11.16L25.34 11.16Q24.60 12.47 23.39 13.07L23.39 13.07L23.39 13.07Q22.18 13.66 20.59 13.66L20.59 13.66L20.59 13.66Q18.93 13.66 17.72 12.94L17.72 12.94L17.72 12.94Q16.51 12.21 15.94 11.10L15.94 11.10L15.94 11.10Q15.37 10.00 15.37 8.69ZM16.60 7.98L16.60 7.98L16.60 7.98Q16.60 8.54 16.76 9.19L16.76 9.19L16.76 9.19Q16.91 9.84 17.26 10.54L17.26 10.54L17.26 10.54Q17.61 11.23 18.11 11.78L18.11 11.78L18.11 11.78Q18.61 12.33 19.37 12.69L19.37 12.69L19.37 12.69Q20.13 13.05 21.04 13.05L21.04 13.05L21.04 13.05Q21.52 13.05 22.04 12.90L22.04 12.90L22.04 12.90Q22.57 12.75 23.09 12.45L23.09 12.45L23.09 12.45Q23.60 12.14 24.01 11.70L24.01 11.70L24.01 11.70Q24.42 11.26 24.68 10.62L24.68 10.62L24.68 10.62Q24.93 9.98 24.93 9.24L24.93 9.24L24.93 9.24Q24.93 6.71 23.60 5.30L23.60 5.30L23.60 5.30Q22.27 3.89 20.31 3.89L20.31 3.89L20.31 3.89Q18.77 3.89 17.69 4.93L17.69 4.93L17.69 4.93Q16.60 5.96 16.60 7.98ZM34.31 8.69L34.31 8.69L34.31 8.69Q34.31 6.34 35.73 4.84L35.73 4.84L35.73 4.84Q37.14 3.33 39.73 3.33L39.73 3.33L39.73 3.33Q40.94 3.33 41.90 3.68L41.90 3.68L41.90 3.68Q42.87 4.03 43.43 4.54L43.43 4.54L43.43 4.54Q43.99 5.05 44.37 5.71L44.37 5.71L44.37 5.71Q44.74 6.37 44.88 6.92L44.88 6.92L44.88 6.92Q45.02 7.48 45.02 7.95L45.02 7.95L45.02 7.95Q45.02 9.86 44.28 11.16L44.28 11.16L44.28 11.16Q43.54 12.47 42.33 13.07L42.33 13.07L42.33 13.07Q41.12 13.66 39.54 13.66L39.54 13.66L39.54 13.66Q37.87 13.66 36.66 12.94L36.66 12.94L36.66 12.94Q35.45 12.21 34.88 11.10L34.88 11.10L34.88 11.10Q34.31 10.00 34.31 8.69ZM35.55 7.98L35.55 7.98L35.55 7.98Q35.55 8.54 35.70 9.19L35.70 9.19L35.70 9.19Q35.85 9.84 36.20 10.54L36.20 10.54L36.20 10.54Q36.55 11.23 37.05 11.78L37.05 11.78L37.05 11.78Q37.55 12.33 38.31 12.69L38.31 12.69L38.31 12.69Q39.07 13.05 39.98 13.05L39.98 13.05L39.98 13.05Q40.46 13.05 40.98 12.90L40.98 12.90L40.98 12.90Q41.51 12.75 42.03 12.45L42.03 12.45L42.03 12.45Q42.55 12.14 42.95 11.70L42.95 11.70L42.95 11.70Q43.36 11.26 43.62 10.62L43.62 10.62L43.62 10.62Q43.88 9.98 43.88 9.24L43.88 9.24L43.88 9.24Q43.88 6.71 42.55 5.30L42.55 5.30L42.55 5.30Q41.22 3.89 39.26 3.89L39.26 3.89L39.26 3.89Q37.72 3.89 36.63 4.93L36.63 4.93L36.63 4.93Q35.55 5.96 35.55 7.98ZM52.92 3.64L52.92 3.64L52.92 3.64Q52.92 3.51 53.04 3.49L53.04 3.49L53.04 3.49Q53.16 3.47 53.63 3.47L53.63 3.47L54.85 3.47L54.85 3.47Q55.20 3.47 56.14 3.44L56.14 3.44L56.14 3.44Q57.08 3.42 57.58 3.42L57.58 3.42L57.58 3.42Q58.55 3.42 59.51 3.71L59.51 3.71L59.51 3.71Q60.48 4.00 61.29 4.56L61.29 4.56L61.29 4.56Q62.10 5.11 62.61 6.00L62.61 6.00L62.61 6.00Q63.11 6.89 63.11 7.98L63.11 7.98L63.11 7.98Q63.11 8.96 62.98 9.68L62.98 9.68L62.98 9.68Q62.85 10.40 62.54 10.93L62.54 10.93L62.54 10.93Q62.23 11.45 61.92 11.78L61.92 11.78L61.92 11.78Q61.61 12.11 61.08 12.56L61.08 12.56L61.08 12.56Q60.66 12.89 59.86 13.19L59.86 13.19L59.86 13.19Q59.07 13.48 58.23 13.48L58.23 13.48L58.23 13.48Q58.14 13.48 56.80 13.45L56.80 13.45L56.80 13.45Q55.45 13.41 54.87 13.41L54.87 13.41L54.87 13.41Q54.38 13.41 53.96 13.45L53.96 13.45L53.96 13.45Q53.54 13.48 53.47 13.48L53.47 13.48L53.47 13.48Q53.13 13.48 53.13 13.30L53.13 13.30L53.13 13.30Q53.13 13.19 53.18 13.14L53.18 13.14L53.18 13.14Q53.23 13.09 53.39 13.05L53.39 13.05L53.39 13.05Q53.55 13.01 53.62 12.98L53.62 12.98L53.62 12.98Q53.84 12.88 54.03 12.61L54.03 12.61L54.03 12.61Q54.22 12.33 54.22 12.07L54.22 12.07L54.22 12.07Q54.22 11.28 54.23 10.07L54.23 10.07L54.23 10.07Q54.24 8.85 54.24 8.27L54.24 8.27L54.24 8.27Q54.24 7.77 54.23 6.70L54.23 6.70L54.23 6.70Q54.22 5.63 54.22 4.72L54.22 4.72L54.22 4.72Q54.22 4.48 53.99 4.23L53.99 4.23L53.99 4.23Q53.76 3.99 53.48 3.98L53.48 3.98L53.48 3.98Q53.28 3.96 53.19 3.95L53.19 3.95L53.19 3.95Q53.10 3.93 53.01 3.86L53.01 3.86L53.01 3.86Q52.92 3.78 52.92 3.64ZM55.40 11.47L55.40 11.47L55.40 11.47Q55.40 11.73 55.41 11.90L55.41 11.90L55.41 11.90Q55.41 12.07 55.46 12.21L55.46 12.21L55.46 12.21Q55.51 12.35 55.54 12.40L55.54 12.40L55.54 12.40Q55.57 12.46 55.71 12.53L55.71 12.53L55.71 12.53Q55.85 12.60 55.92 12.62L55.92 12.62L55.92 12.62Q56 12.64 56.25 12.71L56.25 12.71L56.25 12.71Q56.50 12.78 56.67 12.82L56.67 12.82L56.67 12.82Q57.16 12.96 57.69 12.96L57.69 12.96L57.97 12.96L57.97 12.96Q58.93 12.96 59.60 12.69L59.60 12.69L59.60 12.69Q60.27 12.42 60.89 11.83L60.89 11.83L60.89 11.83Q61.92 10.84 61.92 8.61L61.92 8.61L61.92 8.61Q61.92 7.49 61.48 6.58L61.48 6.58L61.48 6.58Q61.04 5.67 60.33 5.13L60.33 5.13L60.33 5.13Q59.61 4.59 58.79 4.30L58.79 4.30L58.79 4.30Q57.96 4.02 57.12 4.02L57.12 4.02L57.12 4.02Q56.74 4.02 56.57 4.02L56.57 4.02L56.57 4.02Q56.39 4.02 56.16 4.05L56.16 4.05L56.16 4.05Q55.93 4.09 55.85 4.11L55.85 4.11L55.85 4.11Q55.78 4.13 55.66 4.25L55.66 4.25L55.66 4.25Q55.55 4.37 55.53 4.45L55.53 4.45L55.53 4.45Q55.51 4.54 55.48 4.78L55.48 4.78L55.48 4.78Q55.44 5.03 55.44 5.21L55.44 5.21L55.44 5.21Q55.44 5.39 55.44 5.80L55.44 5.80L55.44 5.80Q55.44 6.10 55.43 7.24L55.43 7.24L55.43 7.24Q55.41 8.39 55.41 8.48L55.41 8.48L55.41 8.48Q55.41 9.32 55.41 10.30L55.41 10.30L55.41 10.30Q55.40 11.28 55.40 11.47ZM70.18 13.24L70.18 13.24L70.18 13.24Q70.18 13.10 70.30 12.95L70.30 12.95L70.30 12.95Q70.42 12.80 71.08 12.08L71.08 12.08L71.08 12.08Q72.74 10.28 74.52 8.27L74.52 8.27L74.52 8.27Q74.55 8.23 74.64 8.13L74.64 8.13L74.64 8.13Q74.73 8.02 74.80 7.94L74.80 7.94L74.80 7.94Q74.86 7.87 74.95 7.78L74.95 7.78L74.95 7.78Q75.04 7.70 75.11 7.65L75.11 7.65L75.11 7.65Q75.18 7.60 75.24 7.60L75.24 7.60L75.24 7.60Q75.39 7.60 75.39 7.94L75.39 7.94L75.39 7.94Q75.39 7.95 75.35 8.91L75.35 8.91L75.35 8.91Q75.31 9.87 75.26 10.94L75.26 10.94L75.26 10.94Q75.21 12.01 75.21 12.31L75.21 12.31L75.21 12.31Q75.21 12.50 75.46 12.50L75.46 12.50L75.46 12.50Q75.80 12.50 76.01 12.45L76.01 12.45L76.01 12.45Q76.22 12.40 76.27 12.34L76.27 12.34L76.27 12.34Q76.33 12.28 76.38 12.23L76.38 12.23L76.38 12.23Q76.44 12.18 76.51 12.18L76.51 12.18L76.51 12.18Q76.69 12.18 76.69 12.36L76.69 12.36L76.69 12.36Q76.69 12.45 76.66 12.56L76.66 12.56L76.66 12.56Q76.62 12.67 76.55 12.83L76.55 12.83L76.55 12.83Q76.48 12.99 76.45 13.06L76.45 13.06L76.45 13.06Q76.44 13.09 76.41 13.17L76.41 13.17L76.41 13.17Q76.38 13.24 76.36 13.29L76.36 13.29L76.36 13.29Q76.34 13.34 76.31 13.40L76.31 13.40L76.31 13.40Q76.27 13.45 76.23 13.48L76.23 13.48L76.23 13.48Q76.19 13.51 76.13 13.51L76.13 13.51L76.13 13.51Q76.02 13.51 75.74 13.50L75.74 13.50L75.74 13.50Q75.46 13.50 75.36 13.50L75.36 13.50L75.36 13.50Q75.24 13.50 75.20 13.55L75.20 13.55L75.20 13.55Q75.17 13.61 75.17 13.76L75.17 13.76L75.17 13.76Q75.17 13.97 75.19 14.50L75.19 14.50L75.19 14.50Q75.21 15.02 75.21 15.25L75.21 15.25L75.21 15.25Q75.21 15.27 75.22 15.40L75.22 15.40L75.22 15.40Q75.22 15.53 75.22 15.61L75.22 15.61L75.22 15.61Q75.22 15.88 75.00 15.95L75.00 15.95L75.00 15.95Q74.63 16.04 74.38 16.04L74.38 16.04L74.38 16.04Q74.12 16.04 74.12 15.85L74.12 15.85L74.12 15.85Q74.12 15.79 74.14 15.71L74.14 15.71L74.14 15.71Q74.16 15.64 74.17 15.50L74.17 15.50L74.17 15.50Q74.19 15.37 74.21 14.90L74.21 14.90L74.21 14.90Q74.23 14.42 74.23 13.66L74.23 13.66L74.23 13.66Q74.23 13.44 74.10 13.44L74.10 13.44L74.10 13.44Q73.93 13.44 73.22 13.45L73.22 13.45L73.22 13.45Q72.51 13.47 72.02 13.47L72.02 13.47L72.02 13.47Q71.71 13.47 71.24 13.46L71.24 13.46L71.24 13.46Q70.77 13.45 70.57 13.45L70.57 13.45L70.57 13.45Q70.41 13.45 70.34 13.45L70.34 13.45L70.34 13.45Q70.28 13.44 70.23 13.39L70.23 13.39L70.23 13.39Q70.18 13.34 70.18 13.24ZM71.48 12.38L71.48 12.38L71.48 12.38Q71.48 12.54 72.02 12.54L72.02 12.54L72.53 12.54L72.53 12.54Q72.69 12.54 73.07 12.55L73.07 12.55L73.07 12.55Q73.46 12.56 73.64 12.56L73.64 12.56L73.64 12.56Q74.02 12.56 74.14 12.54L74.14 12.54L74.14 12.54Q74.27 12.52 74.27 12.42L74.27 12.42L74.27 12.42Q74.31 10.43 74.31 9.63L74.31 9.63L74.31 9.63Q74.31 9.30 74.24 9.30L74.24 9.30L74.24 9.30Q74.17 9.30 73.78 9.71L73.78 9.71L73.78 9.71Q73.39 10.12 73.25 10.29L73.25 10.29L73.25 10.29Q72.98 10.63 72.51 11.14L72.51 11.14L72.51 11.14Q72.04 11.65 71.76 11.98L71.76 11.98L71.76 11.98Q71.48 12.31 71.48 12.38ZM84.38 13.33L84.38 13.33L84.38 13.33Q84.38 13.13 84.59 13.06L84.59 13.06L84.59 13.06Q85.04 12.89 85.37 12.31L85.37 12.31L85.37 12.31Q85.71 11.73 87.04 8.83L87.04 8.83L87.04 8.83Q88.41 5.87 89.46 3.63L89.46 3.63L89.46 3.63Q89.56 3.42 89.64 3.36L89.64 3.36L89.64 3.36Q89.71 3.30 89.88 3.30L89.88 3.30L89.88 3.30Q90.01 3.30 90.05 3.36L90.05 3.36L90.05 3.36Q90.09 3.42 90.23 3.82L90.23 3.82L90.23 3.82Q90.31 4.06 90.38 4.23L90.38 4.23L90.38 4.23Q90.44 4.40 90.58 4.77L90.58 4.77L90.58 4.77Q90.72 5.15 90.89 5.56L90.89 5.56L90.89 5.56Q91.34 6.66 92.44 9.22L92.44 9.22L92.44 9.22Q93.53 11.77 93.63 11.98L93.63 11.98L93.63 11.98Q93.87 12.46 94.16 12.71L94.16 12.71L94.16 12.71Q94.46 12.95 94.67 12.97L94.67 12.97L94.67 12.97Q94.89 12.99 95.04 13.04L95.04 13.04L95.04 13.04Q95.19 13.09 95.19 13.26L95.19 13.26L95.19 13.26Q95.19 13.47 94.81 13.47L94.81 13.47L94.81 13.47Q94.65 13.47 94.21 13.43L94.21 13.43L94.21 13.43Q93.76 13.38 93.55 13.38L93.55 13.38L93.55 13.38Q93.28 13.38 92.86 13.41L92.86 13.41L92.86 13.41Q92.44 13.44 92.25 13.44L92.25 13.44L92.25 13.44Q91.81 13.44 91.69 13.40L91.69 13.40L91.69 13.40Q91.57 13.37 91.57 13.24L91.57 13.24L91.57 13.24Q91.57 13.15 91.69 13.08L91.69 13.08L91.69 13.08Q91.80 13.02 91.92 13.00L91.92 13.00L91.92 13.00Q92.05 12.98 92.16 12.87L92.16 12.87L92.16 12.87Q92.27 12.77 92.27 12.59L92.27 12.59L92.27 12.59Q92.27 12.28 91.92 11.33L91.92 11.33L91.92 11.33Q91.57 10.37 91.34 9.93L91.34 9.93L91.34 9.93Q91.21 9.69 90.76 9.69L90.76 9.69L90.76 9.69Q90.69 9.69 90.15 9.70L90.15 9.70L90.15 9.70Q89.60 9.72 89.07 9.72L89.07 9.72L88.33 9.72L88.33 9.72Q87.70 9.72 87.53 9.79L87.53 9.79L87.53 9.79Q87.37 9.86 87.25 10.12L87.25 10.12L87.25 10.12Q87.16 10.30 86.97 10.70L86.97 10.70L86.97 10.70Q86.77 11.10 86.70 11.26L86.70 11.26L86.70 11.26Q86.63 11.41 86.53 11.65L86.53 11.65L86.53 11.65Q86.42 11.90 86.39 12.05L86.39 12.05L86.39 12.05Q86.35 12.19 86.35 12.31L86.35 12.31L86.35 12.31Q86.35 12.63 86.51 12.80L86.51 12.80L86.51 12.80Q86.67 12.96 86.87 12.98L86.87 12.98L86.87 12.98Q87.07 13.01 87.23 13.06L87.23 13.06L87.23 13.06Q87.39 13.12 87.39 13.26L87.39 13.26L87.39 13.26Q87.39 13.36 87.35 13.40L87.35 13.40L87.35 13.40Q87.30 13.45 87.15 13.45L87.15 13.45L87.15 13.45Q87.07 13.45 86.67 13.45L86.67 13.45L86.67 13.45Q86.27 13.44 85.99 13.44L85.99 13.44L85.99 13.44Q85.68 13.44 85.30 13.47L85.30 13.47L85.30 13.47Q84.91 13.50 84.78 13.50L84.78 13.50L84.78 13.50Q84.38 13.50 84.38 13.33ZM87.89 8.71L87.89 8.71L87.89 8.71Q87.89 8.89 88.02 8.93L88.02 8.93L88.02 8.93Q88.14 8.97 88.61 8.97L88.61 8.97L89.04 8.97L90.37 8.96L90.37 8.96Q90.92 8.96 90.92 8.74L90.92 8.74L90.92 8.74Q90.92 8.55 90.23 7.01L90.23 7.01L90.23 7.01Q89.54 5.46 89.36 5.46L89.36 5.46L89.36 5.46Q89.24 5.46 88.56 7.01L88.56 7.01L88.56 7.01Q87.89 8.55 87.89 8.71ZM102.75 3.71L102.75 3.71L102.75 3.71Q102.75 3.46 103.12 3.46L103.12 3.46L103.12 3.46Q103.18 3.46 103.31 3.47L103.31 3.47L103.31 3.47Q103.43 3.49 103.50 3.49L103.50 3.49L103.50 3.49Q103.64 3.49 104.03 3.51L104.03 3.51L104.03 3.51Q104.41 3.54 104.72 3.54L104.72 3.54L104.72 3.54Q105.15 3.54 105.64 3.51L105.64 3.51L105.64 3.51Q106.13 3.49 106.19 3.49L106.19 3.49L106.19 3.49Q106.43 3.49 106.43 3.63L106.43 3.63L106.43 3.63Q106.43 3.82 106.26 3.88L106.26 3.88L106.26 3.88Q106.09 3.95 105.89 3.97L105.89 3.97L105.89 3.97Q105.69 3.99 105.50 4.28L105.50 4.28L105.50 4.28Q105.31 4.56 105.28 5.14L105.28 5.14L105.28 5.14Q105.25 5.68 105.21 8.19L105.21 8.19L105.21 8.19Q105.17 10.70 105.17 10.99L105.17 10.99L105.17 11.55L105.17 11.55Q105.17 12.56 105.50 12.66L105.50 12.66L105.50 12.66Q105.85 12.77 106.11 12.77L106.11 12.77L106.11 12.77Q107.16 12.77 107.95 12.67L107.95 12.67L107.95 12.67Q108.74 12.57 109.14 12.42L109.14 12.42L109.14 12.42Q109.54 12.28 109.80 12.10L109.80 12.10L109.80 12.10Q110.07 11.93 110.14 11.78L110.14 11.78L110.14 11.78Q110.22 11.63 110.30 11.54L110.30 11.54L110.30 11.54Q110.38 11.44 110.46 11.44L110.46 11.44L110.46 11.44Q110.63 11.44 110.63 11.68L110.63 11.68L110.63 11.68Q110.63 12.28 110.03 12.89L110.03 12.89L110.03 12.89Q109.42 13.51 108.98 13.51L108.98 13.51L108.98 13.51Q107.97 13.51 106.70 13.44L106.70 13.44L106.70 13.44Q105.43 13.37 105.13 13.37L105.13 13.37L105.13 13.37Q104.73 13.37 104.22 13.43L104.22 13.43L104.22 13.43Q103.71 13.48 103.38 13.48L103.38 13.48L103.38 13.48Q102.97 13.48 102.97 13.31L102.97 13.31L102.97 13.31Q102.97 13.22 103.05 13.15L103.05 13.15L103.05 13.15Q103.12 13.09 103.19 13.09L103.19 13.09L103.19 13.09Q103.40 13.09 103.60 12.95L103.60 12.95L103.60 12.95Q103.85 12.75 103.96 12.23L103.96 12.23L103.96 12.23Q104.08 11.70 104.08 10.21L104.08 10.21L104.08 8.47L104.08 8.47Q104.08 8.09 104.10 7.29L104.10 7.29L104.10 7.29Q104.12 6.50 104.12 6.05L104.12 6.05L104.12 6.05Q104.12 5.67 104.09 4.77L104.09 4.77L104.09 4.77Q104.08 4.37 103.74 4.14L103.74 4.14L103.74 4.14Q103.40 3.92 102.96 3.91L102.96 3.91L102.96 3.91Q102.82 3.91 102.78 3.86L102.78 3.86L102.78 3.86Q102.75 3.81 102.75 3.71ZM118.19 3.71L118.19 3.71L118.19 3.71Q118.19 3.46 118.57 3.46L118.57 3.46L118.57 3.46Q118.62 3.46 118.75 3.47L118.75 3.47L118.75 3.47Q118.87 3.49 118.94 3.49L118.94 3.49L118.94 3.49Q119.08 3.49 119.47 3.51L119.47 3.51L119.47 3.51Q119.85 3.54 120.16 3.54L120.16 3.54L120.16 3.54Q120.60 3.54 121.09 3.51L121.09 3.51L121.09 3.51Q121.58 3.49 121.63 3.49L121.63 3.49L121.63 3.49Q121.87 3.49 121.87 3.63L121.87 3.63L121.87 3.63Q121.87 3.82 121.70 3.88L121.70 3.88L121.70 3.88Q121.53 3.95 121.33 3.97L121.33 3.97L121.33 3.97Q121.13 3.99 120.94 4.28L120.94 4.28L120.94 4.28Q120.75 4.56 120.72 5.14L120.72 5.14L120.72 5.14Q120.69 5.68 120.65 8.19L120.65 8.19L120.65 8.19Q120.61 10.70 120.61 10.99L120.61 10.99L120.61 11.55L120.61 11.55Q120.61 12.56 120.95 12.66L120.95 12.66L120.95 12.66Q121.30 12.77 121.55 12.77L121.55 12.77L121.55 12.77Q122.60 12.77 123.39 12.67L123.39 12.67L123.39 12.67Q124.18 12.57 124.58 12.42L124.58 12.42L124.58 12.42Q124.98 12.28 125.24 12.10L125.24 12.10L125.24 12.10Q125.51 11.93 125.59 11.78L125.59 11.78L125.59 11.78Q125.66 11.63 125.74 11.54L125.74 11.54L125.74 11.54Q125.82 11.44 125.90 11.44L125.90 11.44L125.90 11.44Q126.07 11.44 126.07 11.68L126.07 11.68L126.07 11.68Q126.07 12.28 125.47 12.89L125.47 12.89L125.47 12.89Q124.87 13.51 124.42 13.51L124.42 13.51L124.42 13.51Q123.41 13.51 122.14 13.44L122.14 13.44L122.14 13.44Q120.88 13.37 120.57 13.37L120.57 13.37L120.57 13.37Q120.18 13.37 119.66 13.43L119.66 13.43L119.66 13.43Q119.15 13.48 118.82 13.48L118.82 13.48L118.82 13.48Q118.41 13.48 118.41 13.31L118.41 13.31L118.41 13.31Q118.41 13.22 118.49 13.15L118.49 13.15L118.49 13.15Q118.57 13.09 118.64 13.09L118.64 13.09L118.64 13.09Q118.85 13.09 119.04 12.95L119.04 12.95L119.04 12.95Q119.29 12.75 119.41 12.23L119.41 12.23L119.41 12.23Q119.52 11.70 119.52 10.21L119.52 10.21L119.52 8.47L119.52 8.47Q119.52 8.09 119.54 7.29L119.54 7.29L119.54 7.29Q119.56 6.50 119.56 6.05L119.56 6.05L119.56 6.05Q119.56 5.67 119.53 4.77L119.53 4.77L119.53 4.77Q119.52 4.37 119.18 4.14L119.18 4.14L119.18 4.14Q118.85 3.92 118.40 3.91L118.40 3.91L118.40 3.91Q118.26 3.91 118.22 3.86L118.22 3.86L118.22 3.86Q118.19 3.81 118.19 3.71Z"></path></g></svg>